<mxfile host="app.diagrams.net" modified="2022-08-11T14:20:36.180Z" agent="5.0 (Macintosh; Intel Mac OS X 10_15_7) AppleWebKit/605.1.15 (KHTML, like Gecko) Version/15.6 Safari/605.1.15" etag="jJC07UXgXS_Mf1Udxo-P" version="20.2.3" type="github" pages="2">
  <diagram id="JLdezREf5s-_i9mHPQbF" name="Страница 1">
    <mxGraphModel dx="788" dy="538" grid="1" gridSize="10" guides="1" tooltips="1" connect="1" arrows="1" fold="1" page="1" pageScale="1" pageWidth="827" pageHeight="1169" math="0" shadow="0">
      <root>
        <mxCell id="0" />
        <mxCell id="1" parent="0" />
        <mxCell id="u_yzRZPRcssbKCR1qLHa-5" style="edgeStyle=orthogonalEdgeStyle;rounded=0;orthogonalLoop=1;jettySize=auto;html=1;exitX=0.5;exitY=1;exitDx=0;exitDy=0;entryX=0.5;entryY=0;entryDx=0;entryDy=0;fontSize=14;" parent="1" source="u_yzRZPRcssbKCR1qLHa-1" target="u_yzRZPRcssbKCR1qLHa-4" edge="1">
          <mxGeometry relative="1" as="geometry" />
        </mxCell>
        <mxCell id="u_yzRZPRcssbKCR1qLHa-1" value="НАЧАЛО" style="ellipse;whiteSpace=wrap;html=1;fontSize=14;" parent="1" vertex="1">
          <mxGeometry x="294" y="150" width="120" height="80" as="geometry" />
        </mxCell>
        <mxCell id="u_yzRZPRcssbKCR1qLHa-3" style="edgeStyle=orthogonalEdgeStyle;rounded=0;orthogonalLoop=1;jettySize=auto;html=1;entryX=0.5;entryY=0;entryDx=0;entryDy=0;fontSize=14;" parent="1" source="u_yzRZPRcssbKCR1qLHa-2" target="u_yzRZPRcssbKCR1qLHa-1" edge="1">
          <mxGeometry relative="1" as="geometry">
            <Array as="points">
              <mxPoint x="354" y="130" />
            </Array>
          </mxGeometry>
        </mxCell>
        <mxCell id="u_yzRZPRcssbKCR1qLHa-2" value="a=4&lt;br style=&quot;font-size: 14px;&quot;&gt;b=8&lt;br style=&quot;font-size: 14px;&quot;&gt;c=3&lt;br style=&quot;font-size: 14px;&quot;&gt;d=1" style="whiteSpace=wrap;html=1;aspect=fixed;fontSize=14;" parent="1" vertex="1">
          <mxGeometry x="454" y="90" width="80" height="80" as="geometry" />
        </mxCell>
        <mxCell id="u_yzRZPRcssbKCR1qLHa-7" style="edgeStyle=orthogonalEdgeStyle;rounded=0;orthogonalLoop=1;jettySize=auto;html=1;exitX=0.5;exitY=1;exitDx=0;exitDy=0;entryX=0.5;entryY=0;entryDx=0;entryDy=0;fontSize=14;" parent="1" source="u_yzRZPRcssbKCR1qLHa-4" target="u_yzRZPRcssbKCR1qLHa-6" edge="1">
          <mxGeometry relative="1" as="geometry" />
        </mxCell>
        <mxCell id="u_yzRZPRcssbKCR1qLHa-4" value="sred = a*b*c*d/4" style="rounded=0;whiteSpace=wrap;html=1;fontSize=14;" parent="1" vertex="1">
          <mxGeometry x="294" y="260" width="120" height="60" as="geometry" />
        </mxCell>
        <mxCell id="u_yzRZPRcssbKCR1qLHa-6" value="Вывод sred" style="rounded=0;whiteSpace=wrap;html=1;fontSize=14;" parent="1" vertex="1">
          <mxGeometry x="294" y="360" width="120" height="60" as="geometry" />
        </mxCell>
      </root>
    </mxGraphModel>
  </diagram>
  <diagram id="Fq3xfc0K-E7mozN--8nA" name="Страница 2">
    <mxGraphModel dx="946" dy="645" grid="1" gridSize="10" guides="1" tooltips="1" connect="1" arrows="1" fold="1" page="1" pageScale="1" pageWidth="827" pageHeight="1169" math="0" shadow="0">
      <root>
        <mxCell id="0" />
        <mxCell id="1" parent="0" />
        <mxCell id="gTmN3XrrGUASiPxnkixV-1" style="edgeStyle=orthogonalEdgeStyle;rounded=0;orthogonalLoop=1;jettySize=auto;html=1;exitX=0.5;exitY=1;exitDx=0;exitDy=0;entryX=0.5;entryY=0;entryDx=0;entryDy=0;fontSize=14;" edge="1" parent="1" source="gTmN3XrrGUASiPxnkixV-2" target="gTmN3XrrGUASiPxnkixV-14">
          <mxGeometry relative="1" as="geometry" />
        </mxCell>
        <mxCell id="gTmN3XrrGUASiPxnkixV-2" value="НАЧАЛО" style="ellipse;whiteSpace=wrap;html=1;fontSize=14;" vertex="1" parent="1">
          <mxGeometry x="250" y="160" width="120" height="80" as="geometry" />
        </mxCell>
        <mxCell id="gTmN3XrrGUASiPxnkixV-3" style="edgeStyle=orthogonalEdgeStyle;rounded=0;orthogonalLoop=1;jettySize=auto;html=1;entryX=0.5;entryY=0;entryDx=0;entryDy=0;fontSize=14;" edge="1" parent="1" source="gTmN3XrrGUASiPxnkixV-4" target="gTmN3XrrGUASiPxnkixV-2">
          <mxGeometry relative="1" as="geometry">
            <Array as="points">
              <mxPoint x="310" y="140" />
            </Array>
          </mxGeometry>
        </mxCell>
        <mxCell id="gTmN3XrrGUASiPxnkixV-4" value="n переменная" style="whiteSpace=wrap;html=1;aspect=fixed;fontSize=14;" vertex="1" parent="1">
          <mxGeometry x="520" y="90" width="110" height="110" as="geometry" />
        </mxCell>
        <mxCell id="gTmN3XrrGUASiPxnkixV-5" style="edgeStyle=orthogonalEdgeStyle;rounded=0;orthogonalLoop=1;jettySize=auto;html=1;exitX=0.5;exitY=1;exitDx=0;exitDy=0;entryX=0.5;entryY=0;entryDx=0;entryDy=0;fontSize=14;" edge="1" parent="1" source="gTmN3XrrGUASiPxnkixV-6" target="gTmN3XrrGUASiPxnkixV-12">
          <mxGeometry relative="1" as="geometry" />
        </mxCell>
        <mxCell id="gTmN3XrrGUASiPxnkixV-6" value="F = F*(n-1)" style="rounded=0;whiteSpace=wrap;html=1;fontSize=14;" vertex="1" parent="1">
          <mxGeometry x="390" y="460" width="120" height="60" as="geometry" />
        </mxCell>
        <mxCell id="gTmN3XrrGUASiPxnkixV-7" style="edgeStyle=orthogonalEdgeStyle;rounded=0;orthogonalLoop=1;jettySize=auto;html=1;exitX=1;exitY=0.5;exitDx=0;exitDy=0;fontSize=14;" edge="1" parent="1" source="gTmN3XrrGUASiPxnkixV-10">
          <mxGeometry relative="1" as="geometry">
            <mxPoint x="450" y="460" as="targetPoint" />
          </mxGeometry>
        </mxCell>
        <mxCell id="gTmN3XrrGUASiPxnkixV-8" value="yes" style="edgeLabel;html=1;align=center;verticalAlign=middle;resizable=0;points=[];fontSize=14;" vertex="1" connectable="0" parent="gTmN3XrrGUASiPxnkixV-7">
          <mxGeometry x="-0.28" y="-2" relative="1" as="geometry">
            <mxPoint as="offset" />
          </mxGeometry>
        </mxCell>
        <mxCell id="gTmN3XrrGUASiPxnkixV-9" value="no" style="edgeStyle=orthogonalEdgeStyle;rounded=0;orthogonalLoop=1;jettySize=auto;html=1;exitX=0;exitY=0.5;exitDx=0;exitDy=0;fontSize=14;" edge="1" parent="1" source="gTmN3XrrGUASiPxnkixV-10">
          <mxGeometry relative="1" as="geometry">
            <mxPoint x="160" y="470" as="targetPoint" />
          </mxGeometry>
        </mxCell>
        <mxCell id="gTmN3XrrGUASiPxnkixV-10" value="n &amp;gt; 1" style="rhombus;whiteSpace=wrap;html=1;fontSize=14;" vertex="1" parent="1">
          <mxGeometry x="270" y="370" width="80" height="80" as="geometry" />
        </mxCell>
        <mxCell id="gTmN3XrrGUASiPxnkixV-11" style="edgeStyle=orthogonalEdgeStyle;rounded=0;orthogonalLoop=1;jettySize=auto;html=1;exitX=1;exitY=0.5;exitDx=0;exitDy=0;fontSize=14;" edge="1" parent="1" source="gTmN3XrrGUASiPxnkixV-12">
          <mxGeometry relative="1" as="geometry">
            <mxPoint x="310" y="340" as="targetPoint" />
            <Array as="points">
              <mxPoint x="530" y="580" />
              <mxPoint x="530" y="340" />
            </Array>
          </mxGeometry>
        </mxCell>
        <mxCell id="gTmN3XrrGUASiPxnkixV-12" value="n = n-1" style="rounded=0;whiteSpace=wrap;html=1;fontSize=14;" vertex="1" parent="1">
          <mxGeometry x="390" y="550" width="120" height="60" as="geometry" />
        </mxCell>
        <mxCell id="gTmN3XrrGUASiPxnkixV-13" style="edgeStyle=orthogonalEdgeStyle;rounded=0;orthogonalLoop=1;jettySize=auto;html=1;exitX=0.5;exitY=1;exitDx=0;exitDy=0;fontSize=14;" edge="1" parent="1" source="gTmN3XrrGUASiPxnkixV-14" target="gTmN3XrrGUASiPxnkixV-10">
          <mxGeometry relative="1" as="geometry" />
        </mxCell>
        <mxCell id="gTmN3XrrGUASiPxnkixV-14" value="F=n" style="rounded=0;whiteSpace=wrap;html=1;fontSize=14;" vertex="1" parent="1">
          <mxGeometry x="250" y="260" width="120" height="60" as="geometry" />
        </mxCell>
        <mxCell id="gTmN3XrrGUASiPxnkixV-15" value="Вывод F" style="rounded=0;whiteSpace=wrap;html=1;fontSize=14;" vertex="1" parent="1">
          <mxGeometry x="100" y="470" width="120" height="60" as="geometry" />
        </mxCell>
        <mxCell id="gTmN3XrrGUASiPxnkixV-16" value="&lt;div style=&quot;text-align: start; font-size: 19px;&quot; title=&quot;Page 1&quot; class=&quot;page&quot;&gt;&lt;div style=&quot;background-color: rgb(255, 255, 255); font-size: 19px;&quot; class=&quot;section&quot;&gt;&lt;div class=&quot;layoutArea&quot; style=&quot;font-size: 19px;&quot;&gt;&lt;div class=&quot;column&quot; style=&quot;font-size: 19px;&quot;&gt;&lt;p style=&quot;font-size: 19px;&quot;&gt;&lt;span style=&quot;font-size: 19px; font-family: ArialMT;&quot;&gt;Составить блок-схему нахождения факториала N&lt;/span&gt;&lt;/p&gt;&lt;/div&gt;&lt;/div&gt;&lt;/div&gt;&lt;/div&gt;" style="text;html=1;strokeColor=none;fillColor=none;align=center;verticalAlign=middle;whiteSpace=wrap;rounded=0;fontSize=19;" vertex="1" parent="1">
          <mxGeometry x="200" y="50" width="470" height="30" as="geometry" />
        </mxCell>
      </root>
    </mxGraphModel>
  </diagram>
</mxfile>
